<mxfile host="app.diagrams.net" agent="Mozilla/5.0 (Windows NT 10.0; Win64; x64) AppleWebKit/537.36 (KHTML, like Gecko) Chrome/114.0.5735.289 Safari/537.36" version="26.0.4">
  <diagram name="第 1 页" id="z1AS-CnwqjCaLJEhdLgM">
    <mxGraphModel dx="996" dy="503" grid="1" gridSize="10" guides="1" tooltips="1" connect="1" arrows="1" fold="1" page="1" pageScale="1" pageWidth="827" pageHeight="1169" math="0" shadow="0">
      <root>
        <mxCell id="0" />
        <mxCell id="1" parent="0" />
        <mxCell id="5twSuYtWL3Y_KQBoELRt-119" style="edgeStyle=orthogonalEdgeStyle;rounded=0;orthogonalLoop=1;jettySize=auto;html=1;exitX=0.5;exitY=1;exitDx=0;exitDy=0;" parent="1" source="5twSuYtWL3Y_KQBoELRt-1" target="5twSuYtWL3Y_KQBoELRt-108" edge="1">
          <mxGeometry relative="1" as="geometry">
            <mxPoint x="436.2352941176471" y="510" as="targetPoint" />
          </mxGeometry>
        </mxCell>
        <mxCell id="5twSuYtWL3Y_KQBoELRt-121" value="http协议" style="edgeLabel;html=1;align=center;verticalAlign=middle;resizable=0;points=[];" parent="5twSuYtWL3Y_KQBoELRt-119" vertex="1" connectable="0">
          <mxGeometry x="-0.1852" y="4" relative="1" as="geometry">
            <mxPoint x="-4" y="1" as="offset" />
          </mxGeometry>
        </mxCell>
        <mxCell id="EVX5sfQxtI5rWK1POcGl-6" style="edgeStyle=orthogonalEdgeStyle;rounded=0;orthogonalLoop=1;jettySize=auto;html=1;exitX=1;exitY=0.75;exitDx=0;exitDy=0;" parent="1" source="5twSuYtWL3Y_KQBoELRt-1" target="5twSuYtWL3Y_KQBoELRt-48" edge="1">
          <mxGeometry relative="1" as="geometry">
            <mxPoint x="770" y="352.5" as="targetPoint" />
          </mxGeometry>
        </mxCell>
        <mxCell id="5twSuYtWL3Y_KQBoELRt-1" value="" style="rounded=0;whiteSpace=wrap;html=1;dashed=1;align=center;glass=0;shadow=0;" parent="1" vertex="1">
          <mxGeometry x="165" y="29" width="543" height="431" as="geometry" />
        </mxCell>
        <mxCell id="5twSuYtWL3Y_KQBoELRt-5" value="坐席" style="image;html=1;image=img/lib/clip_art/computers/Network_128x128.png" parent="1" vertex="1">
          <mxGeometry x="5" y="74" width="80" height="50" as="geometry" />
        </mxCell>
        <mxCell id="5twSuYtWL3Y_KQBoELRt-6" value="" style="endArrow=none;html=1;rounded=0;fillColor=#dae8fc;strokeColor=#3399FF;" parent="1" edge="1">
          <mxGeometry width="50" height="50" relative="1" as="geometry">
            <mxPoint x="136" y="460" as="sourcePoint" />
            <mxPoint x="136" y="40" as="targetPoint" />
          </mxGeometry>
        </mxCell>
        <mxCell id="5twSuYtWL3Y_KQBoELRt-9" value="客服系统" style="text;strokeColor=none;fillColor=none;html=1;fontSize=24;fontStyle=1;verticalAlign=middle;align=center;" parent="1" vertex="1">
          <mxGeometry x="330" y="40" width="220" height="40" as="geometry" />
        </mxCell>
        <mxCell id="5twSuYtWL3Y_KQBoELRt-41" value="" style="endArrow=none;html=1;rounded=0;fillColor=#dae8fc;strokeColor=#3399FF;" parent="1" edge="1">
          <mxGeometry width="50" height="50" relative="1" as="geometry">
            <mxPoint x="740" y="455" as="sourcePoint" />
            <mxPoint x="740" y="60" as="targetPoint" />
          </mxGeometry>
        </mxCell>
        <mxCell id="EVX5sfQxtI5rWK1POcGl-7" value="对象存储" style="edgeLabel;html=1;align=center;verticalAlign=middle;resizable=0;points=[];" parent="5twSuYtWL3Y_KQBoELRt-41" vertex="1" connectable="0">
          <mxGeometry x="-0.3904" y="-1" relative="1" as="geometry">
            <mxPoint as="offset" />
          </mxGeometry>
        </mxCell>
        <mxCell id="5twSuYtWL3Y_KQBoELRt-59" value="" style="group" parent="1" vertex="1" connectable="0">
          <mxGeometry x="210" y="90" width="230" height="170" as="geometry" />
        </mxCell>
        <mxCell id="5twSuYtWL3Y_KQBoELRt-25" value="" style="rounded=1;whiteSpace=wrap;html=1;dashed=1;" parent="5twSuYtWL3Y_KQBoELRt-59" vertex="1">
          <mxGeometry y="2" width="230" height="168" as="geometry" />
        </mxCell>
        <mxCell id="5twSuYtWL3Y_KQBoELRt-26" value="&lt;font style=&quot;font-size: 14px;&quot;&gt;其他模块&lt;/font&gt;" style="text;strokeColor=none;fillColor=none;html=1;fontSize=24;fontStyle=1;verticalAlign=middle;align=center;" parent="5twSuYtWL3Y_KQBoELRt-59" vertex="1">
          <mxGeometry x="64" width="100" height="30" as="geometry" />
        </mxCell>
        <mxCell id="5twSuYtWL3Y_KQBoELRt-27" value="工单" style="rounded=0;whiteSpace=wrap;html=1;fillColor=#ffe6cc;strokeColor=#d79b00;" parent="5twSuYtWL3Y_KQBoELRt-59" vertex="1">
          <mxGeometry x="14" y="34" width="96" height="34" as="geometry" />
        </mxCell>
        <mxCell id="5twSuYtWL3Y_KQBoELRt-28" value="排班" style="rounded=0;whiteSpace=wrap;html=1;fillColor=#ffe6cc;strokeColor=#d79b00;" parent="5twSuYtWL3Y_KQBoELRt-59" vertex="1">
          <mxGeometry x="14" y="76" width="96" height="34" as="geometry" />
        </mxCell>
        <mxCell id="5twSuYtWL3Y_KQBoELRt-54" value="教培" style="rounded=0;whiteSpace=wrap;html=1;fillColor=#ffe6cc;strokeColor=#d79b00;" parent="5twSuYtWL3Y_KQBoELRt-59" vertex="1">
          <mxGeometry x="120" y="34" width="96" height="34" as="geometry" />
        </mxCell>
        <mxCell id="5twSuYtWL3Y_KQBoELRt-56" value="绩效" style="rounded=0;whiteSpace=wrap;html=1;fillColor=#ffe6cc;strokeColor=#d79b00;" parent="5twSuYtWL3Y_KQBoELRt-59" vertex="1">
          <mxGeometry x="120" y="76" width="96" height="34" as="geometry" />
        </mxCell>
        <mxCell id="5twSuYtWL3Y_KQBoELRt-57" value="报表" style="rounded=0;whiteSpace=wrap;html=1;fillColor=#ffe6cc;strokeColor=#d79b00;" parent="5twSuYtWL3Y_KQBoELRt-59" vertex="1">
          <mxGeometry x="14" y="120" width="96" height="34" as="geometry" />
        </mxCell>
        <mxCell id="5twSuYtWL3Y_KQBoELRt-58" value="在线客服" style="rounded=0;whiteSpace=wrap;html=1;fillColor=#ffe6cc;strokeColor=#d79b00;" parent="5twSuYtWL3Y_KQBoELRt-59" vertex="1">
          <mxGeometry x="120" y="120" width="96" height="34" as="geometry" />
        </mxCell>
        <mxCell id="5twSuYtWL3Y_KQBoELRt-60" value="" style="group;fontColor=default;" parent="1" vertex="1" connectable="0">
          <mxGeometry x="460" y="90" width="230" height="170" as="geometry" />
        </mxCell>
        <mxCell id="5twSuYtWL3Y_KQBoELRt-61" value="" style="rounded=1;whiteSpace=wrap;html=1;dashed=1;" parent="5twSuYtWL3Y_KQBoELRt-60" vertex="1">
          <mxGeometry y="2" width="230" height="168" as="geometry" />
        </mxCell>
        <mxCell id="5twSuYtWL3Y_KQBoELRt-62" value="&lt;font style=&quot;font-size: 14px;&quot;&gt;CSR服务&lt;/font&gt;" style="text;strokeColor=none;fillColor=none;html=1;fontSize=24;fontStyle=1;verticalAlign=middle;align=center;" parent="5twSuYtWL3Y_KQBoELRt-60" vertex="1">
          <mxGeometry x="64" width="100" height="30" as="geometry" />
        </mxCell>
        <mxCell id="5twSuYtWL3Y_KQBoELRt-63" value="个人业务" style="rounded=0;whiteSpace=wrap;html=1;fillColor=#ffe6cc;strokeColor=#d79b00;" parent="5twSuYtWL3Y_KQBoELRt-60" vertex="1">
          <mxGeometry x="14" y="34" width="96" height="34" as="geometry" />
        </mxCell>
        <mxCell id="5twSuYtWL3Y_KQBoELRt-64" value="&lt;span style=&quot;font-family: &amp;quot;Microsoft YaHei&amp;quot;; font-size: 8pt; background-color: transparent;&quot;&gt;电子银行业务&lt;/span&gt;" style="rounded=0;whiteSpace=wrap;html=1;fillColor=#ffe6cc;strokeColor=#d79b00;fontColor=default;" parent="5twSuYtWL3Y_KQBoELRt-60" vertex="1">
          <mxGeometry x="14" y="76" width="96" height="34" as="geometry" />
        </mxCell>
        <mxCell id="5twSuYtWL3Y_KQBoELRt-65" value="&lt;span style=&quot;font-family: &amp;quot;Microsoft YaHei&amp;quot;; font-size: 8pt; background-color: transparent;&quot;&gt;对公业务&lt;/span&gt;" style="rounded=0;whiteSpace=wrap;html=1;fillColor=#ffe6cc;strokeColor=#d79b00;fontColor=default;" parent="5twSuYtWL3Y_KQBoELRt-60" vertex="1">
          <mxGeometry x="120" y="34" width="96" height="34" as="geometry" />
        </mxCell>
        <mxCell id="5twSuYtWL3Y_KQBoELRt-66" value="&lt;span style=&quot;font-family: &amp;quot;Microsoft YaHei&amp;quot;; font-size: 8pt; background-color: transparent;&quot;&gt;公共服务&lt;/span&gt;" style="rounded=0;whiteSpace=wrap;html=1;fillColor=#ffe6cc;strokeColor=#d79b00;fontColor=default;" parent="5twSuYtWL3Y_KQBoELRt-60" vertex="1">
          <mxGeometry x="120" y="76" width="96" height="34" as="geometry" />
        </mxCell>
        <mxCell id="5twSuYtWL3Y_KQBoELRt-67" value="&lt;span style=&quot;font-family: &amp;quot;Microsoft YaHei&amp;quot;; font-size: 8pt; background-color: transparent;&quot;&gt;公共信息查询&lt;/span&gt;" style="rounded=0;whiteSpace=wrap;html=1;fillColor=#ffe6cc;strokeColor=#d79b00;fontColor=default;" parent="5twSuYtWL3Y_KQBoELRt-60" vertex="1">
          <mxGeometry x="14" y="120" width="96" height="34" as="geometry" />
        </mxCell>
        <mxCell id="5twSuYtWL3Y_KQBoELRt-68" value="&lt;span style=&quot;font-family: &amp;quot;Microsoft YaHei&amp;quot;; font-size: 8pt; background-color: transparent;&quot;&gt;信用卡业务&lt;/span&gt;" style="rounded=0;whiteSpace=wrap;html=1;fillColor=#ffe6cc;strokeColor=#d79b00;fontColor=default;" parent="5twSuYtWL3Y_KQBoELRt-60" vertex="1">
          <mxGeometry x="120" y="120" width="96" height="34" as="geometry" />
        </mxCell>
        <mxCell id="5twSuYtWL3Y_KQBoELRt-73" value="" style="group" parent="1" vertex="1" connectable="0">
          <mxGeometry x="210" y="270" width="230" height="170" as="geometry" />
        </mxCell>
        <mxCell id="5twSuYtWL3Y_KQBoELRt-74" value="" style="rounded=1;whiteSpace=wrap;html=1;dashed=1;" parent="5twSuYtWL3Y_KQBoELRt-73" vertex="1">
          <mxGeometry y="2" width="230" height="168" as="geometry" />
        </mxCell>
        <mxCell id="5twSuYtWL3Y_KQBoELRt-75" value="&lt;font style=&quot;font-size: 14px;&quot;&gt;呼叫模块&lt;/font&gt;" style="text;strokeColor=none;fillColor=none;html=1;fontSize=24;fontStyle=1;verticalAlign=middle;align=center;" parent="5twSuYtWL3Y_KQBoELRt-73" vertex="1">
          <mxGeometry x="64" width="100" height="30" as="geometry" />
        </mxCell>
        <mxCell id="5twSuYtWL3Y_KQBoELRt-76" value="&lt;span style=&quot;font-family: &amp;quot;Microsoft YaHei&amp;quot;; font-size: 8pt; background-color: transparent;&quot;&gt;基础呼叫&lt;/span&gt;" style="rounded=0;whiteSpace=wrap;html=1;fillColor=#ffe6cc;strokeColor=#d79b00;fontColor=#000000;" parent="5twSuYtWL3Y_KQBoELRt-73" vertex="1">
          <mxGeometry x="14" y="34" width="96" height="34" as="geometry" />
        </mxCell>
        <mxCell id="5twSuYtWL3Y_KQBoELRt-77" value="&lt;span style=&quot;font-family: &amp;quot;Microsoft YaHei&amp;quot;; font-size: 8pt; background-color: transparent;&quot;&gt;软电话&lt;/span&gt;" style="rounded=0;whiteSpace=wrap;html=1;fillColor=#ffe6cc;strokeColor=#d79b00;fontColor=#000000;" parent="5twSuYtWL3Y_KQBoELRt-73" vertex="1">
          <mxGeometry x="14" y="76" width="96" height="34" as="geometry" />
        </mxCell>
        <mxCell id="5twSuYtWL3Y_KQBoELRt-78" value="&lt;span style=&quot;font-family: &amp;quot;Microsoft YaHei&amp;quot;; font-size: 8pt; background-color: transparent;&quot;&gt;IVR管理&lt;/span&gt;" style="rounded=0;whiteSpace=wrap;html=1;fillColor=#ffe6cc;strokeColor=#d79b00;fontColor=#000000;" parent="5twSuYtWL3Y_KQBoELRt-73" vertex="1">
          <mxGeometry x="120" y="34" width="96" height="34" as="geometry" />
        </mxCell>
        <mxCell id="5twSuYtWL3Y_KQBoELRt-79" value="监控" style="rounded=0;whiteSpace=wrap;html=1;fillColor=#ffe6cc;strokeColor=#d79b00;" parent="5twSuYtWL3Y_KQBoELRt-73" vertex="1">
          <mxGeometry x="120" y="76" width="96" height="34" as="geometry" />
        </mxCell>
        <mxCell id="5twSuYtWL3Y_KQBoELRt-80" value="&lt;span style=&quot;font-family: &amp;quot;Microsoft YaHei&amp;quot;; font-size: 8pt; background-color: transparent;&quot;&gt;话务明细&lt;/span&gt;" style="rounded=0;whiteSpace=wrap;html=1;fillColor=#ffe6cc;strokeColor=#d79b00;fontColor=#000000;" parent="5twSuYtWL3Y_KQBoELRt-73" vertex="1">
          <mxGeometry x="14" y="120" width="96" height="34" as="geometry" />
        </mxCell>
        <mxCell id="5twSuYtWL3Y_KQBoELRt-81" value="&lt;span style=&quot;font-family: &amp;quot;Microsoft YaHei&amp;quot;; font-size: 8pt; background-color: transparent;&quot;&gt;录音管理&lt;/span&gt;" style="rounded=0;whiteSpace=wrap;html=1;fillColor=#ffe6cc;strokeColor=#d79b00;fontColor=#000000;" parent="5twSuYtWL3Y_KQBoELRt-73" vertex="1">
          <mxGeometry x="120" y="120" width="96" height="34" as="geometry" />
        </mxCell>
        <mxCell id="5twSuYtWL3Y_KQBoELRt-82" value="" style="group;fontColor=default;" parent="1" vertex="1" connectable="0">
          <mxGeometry x="460" y="270" width="230" height="170" as="geometry" />
        </mxCell>
        <mxCell id="5twSuYtWL3Y_KQBoELRt-83" value="" style="rounded=1;whiteSpace=wrap;html=1;dashed=1;" parent="5twSuYtWL3Y_KQBoELRt-82" vertex="1">
          <mxGeometry y="2" width="230" height="168" as="geometry" />
        </mxCell>
        <mxCell id="5twSuYtWL3Y_KQBoELRt-84" value="&lt;font style=&quot;font-size: 14px;&quot;&gt;IVR服务&lt;/font&gt;" style="text;strokeColor=none;fillColor=none;html=1;fontSize=24;fontStyle=1;verticalAlign=middle;align=center;" parent="5twSuYtWL3Y_KQBoELRt-82" vertex="1">
          <mxGeometry x="64" width="100" height="30" as="geometry" />
        </mxCell>
        <mxCell id="5twSuYtWL3Y_KQBoELRt-85" value="个人业务" style="rounded=0;whiteSpace=wrap;html=1;fillColor=#ffe6cc;strokeColor=#d79b00;" parent="5twSuYtWL3Y_KQBoELRt-82" vertex="1">
          <mxGeometry x="14" y="34" width="96" height="34" as="geometry" />
        </mxCell>
        <mxCell id="5twSuYtWL3Y_KQBoELRt-86" value="&lt;span style=&quot;font-family: &amp;quot;Microsoft YaHei&amp;quot;; font-size: 8pt; background-color: transparent;&quot;&gt;紧急挂失&lt;/span&gt;" style="rounded=0;whiteSpace=wrap;html=1;fillColor=#ffe6cc;strokeColor=#d79b00;fontColor=default;" parent="5twSuYtWL3Y_KQBoELRt-82" vertex="1">
          <mxGeometry x="14" y="76" width="96" height="34" as="geometry" />
        </mxCell>
        <mxCell id="5twSuYtWL3Y_KQBoELRt-87" value="&lt;span style=&quot;font-family: &amp;quot;Microsoft YaHei&amp;quot;; font-size: 8pt; background-color: transparent;&quot;&gt;对公业务&lt;/span&gt;" style="rounded=0;whiteSpace=wrap;html=1;fillColor=#ffe6cc;strokeColor=#d79b00;fontColor=default;" parent="5twSuYtWL3Y_KQBoELRt-82" vertex="1">
          <mxGeometry x="120" y="34" width="96" height="34" as="geometry" />
        </mxCell>
        <mxCell id="5twSuYtWL3Y_KQBoELRt-88" value="&lt;span style=&quot;font-family: &amp;quot;Microsoft YaHei&amp;quot;; font-size: 8pt; background-color: transparent;&quot;&gt;智能语音服务&lt;/span&gt;" style="rounded=0;whiteSpace=wrap;html=1;fillColor=#ffe6cc;strokeColor=#d79b00;fontColor=default;" parent="5twSuYtWL3Y_KQBoELRt-82" vertex="1">
          <mxGeometry x="120" y="76" width="96" height="34" as="geometry" />
        </mxCell>
        <mxCell id="5twSuYtWL3Y_KQBoELRt-89" value="&lt;span style=&quot;font-family: &amp;quot;Microsoft YaHei&amp;quot;; font-size: 8pt; background-color: transparent;&quot;&gt;公共信息查询&lt;/span&gt;" style="rounded=0;whiteSpace=wrap;html=1;fillColor=#ffe6cc;strokeColor=#d79b00;fontColor=default;" parent="5twSuYtWL3Y_KQBoELRt-82" vertex="1">
          <mxGeometry x="14" y="120" width="96" height="34" as="geometry" />
        </mxCell>
        <mxCell id="5twSuYtWL3Y_KQBoELRt-90" value="&lt;span style=&quot;font-family: &amp;quot;Microsoft YaHei&amp;quot;; font-size: 8pt; background-color: transparent;&quot;&gt;信用卡业务&lt;/span&gt;" style="rounded=0;whiteSpace=wrap;html=1;fillColor=#ffe6cc;strokeColor=#d79b00;fontColor=default;" parent="5twSuYtWL3Y_KQBoELRt-82" vertex="1">
          <mxGeometry x="120" y="120" width="96" height="34" as="geometry" />
        </mxCell>
        <mxCell id="5twSuYtWL3Y_KQBoELRt-91" style="edgeStyle=orthogonalEdgeStyle;rounded=0;orthogonalLoop=1;jettySize=auto;html=1;exitX=1;exitY=0.5;exitDx=0;exitDy=0;entryX=0.007;entryY=0.158;entryDx=0;entryDy=0;entryPerimeter=0;" parent="1" source="5twSuYtWL3Y_KQBoELRt-5" target="5twSuYtWL3Y_KQBoELRt-1" edge="1">
          <mxGeometry relative="1" as="geometry">
            <mxPoint x="141.88699999999994" y="115.019" as="targetPoint" />
          </mxGeometry>
        </mxCell>
        <mxCell id="5twSuYtWL3Y_KQBoELRt-92" value="http协议" style="edgeLabel;html=1;align=center;verticalAlign=middle;resizable=0;points=[];" parent="5twSuYtWL3Y_KQBoELRt-91" vertex="1" connectable="0">
          <mxGeometry x="-0.059" y="2" relative="1" as="geometry">
            <mxPoint as="offset" />
          </mxGeometry>
        </mxCell>
        <mxCell id="5twSuYtWL3Y_KQBoELRt-93" style="edgeStyle=orthogonalEdgeStyle;rounded=0;orthogonalLoop=1;jettySize=auto;html=1;exitX=1;exitY=0.25;exitDx=0;exitDy=0;entryX=0;entryY=0.308;entryDx=0;entryDy=0;entryPerimeter=0;" parent="1" source="5twSuYtWL3Y_KQBoELRt-1" target="5twSuYtWL3Y_KQBoELRt-46" edge="1">
          <mxGeometry relative="1" as="geometry" />
        </mxCell>
        <mxCell id="5twSuYtWL3Y_KQBoELRt-94" value="http协议" style="edgeLabel;html=1;align=center;verticalAlign=middle;resizable=0;points=[];" parent="5twSuYtWL3Y_KQBoELRt-93" vertex="1" connectable="0">
          <mxGeometry x="-0.074" y="2" relative="1" as="geometry">
            <mxPoint x="1" as="offset" />
          </mxGeometry>
        </mxCell>
        <mxCell id="5twSuYtWL3Y_KQBoELRt-97" value="" style="edgeStyle=orthogonalEdgeStyle;rounded=0;orthogonalLoop=1;jettySize=auto;html=1;entryX=0.004;entryY=0.611;entryDx=0;entryDy=0;entryPerimeter=0;shape=link;" parent="1" source="5twSuYtWL3Y_KQBoELRt-96" target="5twSuYtWL3Y_KQBoELRt-1" edge="1">
          <mxGeometry relative="1" as="geometry" />
        </mxCell>
        <mxCell id="5twSuYtWL3Y_KQBoELRt-102" value="SIP协议&lt;div&gt;呼入/呼出&lt;/div&gt;" style="edgeLabel;html=1;align=center;verticalAlign=middle;resizable=0;points=[];" parent="5twSuYtWL3Y_KQBoELRt-97" vertex="1" connectable="0">
          <mxGeometry x="-0.0053" y="-1" relative="1" as="geometry">
            <mxPoint x="-3" as="offset" />
          </mxGeometry>
        </mxCell>
        <mxCell id="5twSuYtWL3Y_KQBoELRt-96" value="" style="verticalLabelPosition=bottom;sketch=0;aspect=fixed;html=1;verticalAlign=top;strokeColor=none;align=center;outlineConnect=0;shape=mxgraph.citrix.cell_phone;" parent="1" vertex="1">
          <mxGeometry x="32.5" y="260" width="25" height="60" as="geometry" />
        </mxCell>
        <mxCell id="5twSuYtWL3Y_KQBoELRt-118" value="" style="group" parent="1" vertex="1" connectable="0">
          <mxGeometry x="102" y="500" width="670" height="200" as="geometry" />
        </mxCell>
        <mxCell id="5twSuYtWL3Y_KQBoELRt-108" value="" style="rounded=0;whiteSpace=wrap;html=1;dashed=1;align=center;glass=0;shadow=0;" parent="5twSuYtWL3Y_KQBoELRt-118" vertex="1">
          <mxGeometry width="670" height="180" as="geometry" />
        </mxCell>
        <mxCell id="5twSuYtWL3Y_KQBoELRt-109" value="海芯ESB" style="rounded=0;whiteSpace=wrap;html=1;fillColor=#d5e8d4;strokeColor=#82b366;" parent="5twSuYtWL3Y_KQBoELRt-118" vertex="1">
          <mxGeometry x="15" y="10" width="645" height="40" as="geometry" />
        </mxCell>
        <mxCell id="5twSuYtWL3Y_KQBoELRt-110" value="&lt;span style=&quot;font-family:&#39;Microsoft YaHei&#39;; font-size:8pt; color:#7f41fb; background-color:transparent;&quot;&gt;核心系统&lt;/span&gt;" style="rounded=0;whiteSpace=wrap;html=1;" parent="5twSuYtWL3Y_KQBoELRt-118" vertex="1">
          <mxGeometry x="15" y="70" width="96" height="34" as="geometry" />
        </mxCell>
        <mxCell id="5twSuYtWL3Y_KQBoELRt-111" value="&lt;span style=&quot;font-family:&#39;Microsoft YaHei&#39;; font-size:8pt; color:#7f41fb; background-color:transparent;&quot;&gt;统一支付系统&lt;/span&gt;" style="rounded=0;whiteSpace=wrap;html=1;" parent="5twSuYtWL3Y_KQBoELRt-118" vertex="1">
          <mxGeometry x="152" y="70" width="96" height="34" as="geometry" />
        </mxCell>
        <mxCell id="5twSuYtWL3Y_KQBoELRt-112" value="&lt;span style=&quot;font-family:&#39;Microsoft YaHei&#39;; font-size:8pt; color:#7f41fb; background-color:transparent;&quot;&gt;ECIF系统&lt;/span&gt;" style="rounded=0;whiteSpace=wrap;html=1;" parent="5twSuYtWL3Y_KQBoELRt-118" vertex="1">
          <mxGeometry x="293" y="70" width="96" height="34" as="geometry" />
        </mxCell>
        <mxCell id="5twSuYtWL3Y_KQBoELRt-113" value="&lt;span style=&quot;font-family:&#39;Microsoft YaHei&#39;; font-size:8pt; color:#7f41fb; background-color:transparent;&quot;&gt;信用卡前置系统&lt;/span&gt;" style="rounded=0;whiteSpace=wrap;html=1;" parent="5twSuYtWL3Y_KQBoELRt-118" vertex="1">
          <mxGeometry x="428" y="70" width="96" height="34" as="geometry" />
        </mxCell>
        <mxCell id="5twSuYtWL3Y_KQBoELRt-114" value="&lt;span style=&quot;font-family:&#39;Microsoft YaHei&#39;; font-size:8pt; color:#7f41fb; background-color:transparent;&quot;&gt;电子渠道&lt;/span&gt;" style="rounded=0;whiteSpace=wrap;html=1;" parent="5twSuYtWL3Y_KQBoELRt-118" vertex="1">
          <mxGeometry x="15" y="130" width="96" height="34" as="geometry" />
        </mxCell>
        <mxCell id="5twSuYtWL3Y_KQBoELRt-115" value="&lt;span style=&quot;font-family:&#39;Microsoft YaHei&#39;; font-size:8pt; color:#7f41fb; background-color:transparent;&quot;&gt;短信平台&lt;/span&gt;" style="rounded=0;whiteSpace=wrap;html=1;" parent="5twSuYtWL3Y_KQBoELRt-118" vertex="1">
          <mxGeometry x="152" y="130" width="96" height="34" as="geometry" />
        </mxCell>
        <mxCell id="5twSuYtWL3Y_KQBoELRt-116" value="&lt;span style=&quot;font-family:&#39;Microsoft YaHei&#39;; font-size:8pt; color:#7f41fb; background-color:transparent;&quot;&gt;信贷系统&lt;/span&gt;" style="rounded=0;whiteSpace=wrap;html=1;" parent="5twSuYtWL3Y_KQBoELRt-118" vertex="1">
          <mxGeometry x="293" y="130" width="96" height="34" as="geometry" />
        </mxCell>
        <mxCell id="5twSuYtWL3Y_KQBoELRt-117" value="&lt;span style=&quot;font-family:&#39;Microsoft YaHei&#39;; font-size:8pt; color:#7f41fb; background-color:transparent;&quot;&gt;统一身份认证&lt;/span&gt;" style="rounded=0;whiteSpace=wrap;html=1;" parent="5twSuYtWL3Y_KQBoELRt-118" vertex="1">
          <mxGeometry x="428" y="130" width="96" height="34" as="geometry" />
        </mxCell>
        <mxCell id="eXp-EpJMZknZPVPf-O0c-1" value="&lt;span style=&quot;font-family:&#39;Microsoft YaHei&#39;; font-size:8pt; color:#7f41fb; background-color:transparent;&quot;&gt;ATM监控平台&lt;/span&gt;" style="rounded=0;whiteSpace=wrap;html=1;" vertex="1" parent="5twSuYtWL3Y_KQBoELRt-118">
          <mxGeometry x="565" y="70" width="96" height="34" as="geometry" />
        </mxCell>
        <mxCell id="5twSuYtWL3Y_KQBoELRt-46" value="" style="rounded=1;whiteSpace=wrap;html=1;dashed=1;" parent="1" vertex="1">
          <mxGeometry x="770" y="55" width="120" height="195" as="geometry" />
        </mxCell>
        <mxCell id="5twSuYtWL3Y_KQBoELRt-47" value="&lt;font style=&quot;font-size: 14px;&quot;&gt;行内直连系统&lt;/font&gt;" style="text;strokeColor=none;fillColor=none;html=1;fontSize=24;fontStyle=1;verticalAlign=middle;align=center;" parent="1" vertex="1">
          <mxGeometry x="780" y="53" width="100" height="30" as="geometry" />
        </mxCell>
        <mxCell id="5twSuYtWL3Y_KQBoELRt-48" value="数据服务平台" style="rounded=0;whiteSpace=wrap;html=1;fillColor=#dae8fc;strokeColor=#6c8ebf;" parent="1" vertex="1">
          <mxGeometry x="782" y="336" width="96" height="34" as="geometry" />
        </mxCell>
        <mxCell id="5twSuYtWL3Y_KQBoELRt-49" value="网贷系统" style="rounded=0;whiteSpace=wrap;html=1;fillColor=#dae8fc;strokeColor=#6c8ebf;" parent="1" vertex="1">
          <mxGeometry x="784" y="90" width="96" height="34" as="geometry" />
        </mxCell>
        <mxCell id="5twSuYtWL3Y_KQBoELRt-52" value="文件传输平台" style="rounded=0;whiteSpace=wrap;html=1;fillColor=#dae8fc;strokeColor=#6c8ebf;" parent="1" vertex="1">
          <mxGeometry x="784" y="190" width="96" height="34" as="geometry" />
        </mxCell>
        <mxCell id="5twSuYtWL3Y_KQBoELRt-53" value="全密码安全服务平台" style="rounded=0;whiteSpace=wrap;html=1;fillColor=#dae8fc;strokeColor=#6c8ebf;" parent="1" vertex="1">
          <mxGeometry x="784" y="138" width="96" height="34" as="geometry" />
        </mxCell>
      </root>
    </mxGraphModel>
  </diagram>
</mxfile>
